inDegrees=no
nColumns=32
nRows=17
DataType=double
version=3
OpenSimVersion=4.5
endheader
time	pelvis_tilt	pelvis_list	pelvis_rotation	pelvis_tz	pelvis_ty	pelvis_tx	hip_flexion_r	hip_adduction_r	hip_rotation_r	knee_angle_r	ankle_angle_r	subtalar_angle_r	mtp_angle_r	hip_flexion_l	hip_adduction_l	hip_rotation_l	knee_angle_l	ankle_angle_l	subtalar_angle_l	mtp_angle_l	lumbar_extension	lumbar_bending	lumbar_rotation	arm_flex_r	arm_add_r	arm_rot_r	elbow_flex_r	arm_flex_l	arm_add_l	arm_rot_l	elbow_flex_l
0.5299999999999999	-0.05753907305320144	-0.02894537733618069	-0.05975384450719433	0.006645540000000005	0.79858323	0.6799240600000001	-0.3516992646098646	0.07531273745939236	-0.1635797952248821	-0.1045419371357422	0.2856117790711537	0.1827549114260526	0	0.4693806414460146	0.01901776569339114	-0.1168054487935174	0.02681269847544753	0.04941475853999928	0.08288184872178435	0	-0.008364718031117284	0.08320257409032225	0.1311354847399265	-0.0417228614448673	-0.1205047720560904	-0.3323957078837105	0.8526483197395959	-0.3724814674199009	0.03601995133915187	-0.6332695952188828	0.3923884596921601
0.5399999999999999	-0.05503500719190291	-0.01911908227457785	-0.06140785151143398	0.006331810000000049	0.7967258699999999	0.69534305	-0.3642116895405056	0.06119627605728638	-0.1638979092317931	-0.1206070717376693	0.2766016358391879	0.1811678994197104	0	0.473067895931343	0.03023257218456183	-0.1179852978255838	-0.02028016426122082	0.05171098351709309	0.06256276065118434	0	-0.005928412055593774	0.07021308906498863	0.130212738763708	-0.04067663394766895	-0.1152074171273439	-0.3316286400407821	0.8532777191527194	-0.3754580929488556	0.03232915732610043	-0.6347955405981587	0.3910559988957665
0.5499999999999999	-0.05734528587580736	-0.002750905208439268	-0.05856622825909411	0.00576686000000004	0.79526783	0.71027839	-0.3683696416972714	0.04214527894587143	-0.1682334996035635	-0.1401954309420979	0.2685507976462164	0.1805502790591754	0	0.4841694345683165	0.04758095697742502	-0.1141997793835059	-0.04936539417103464	-0.01098245482210996	0.01914130707916431	0	0.001953127280072148	0.04969058758245765	0.1234819979783078	-0.0363997423147687	-0.1069094874361798	-0.3334066984050416	0.8473025211030651	-0.3762834807942065	0.02721711081082223	-0.6362583207664757	0.3877795903785015
0.5599999999999999	-0.06354550107209302	0.021414300102609	-0.04862233177445247	0.002974909999999997	0.79428493	0.72513507	-0.3636993455205888	0.01279066200386834	-0.1965384402777664	-0.1663788532246669	0.250613268761295	0.2026213464352857	0	0.502573828032572	0.07867754445980991	-0.07259366231417283	-0.08678862059751893	-0.05364246417658446	-0.03914761905783756	0	0.01447106710208358	0.02369989677319863	0.1126082269031146	-0.03425393277967148	-0.1023180935807225	-0.3412078363561877	0.836618653544195	-0.3725311384432152	0.02484200759804671	-0.637530557406233	0.3811660917365381
0.57	-0.06103542109256141	0.04185572063946148	-0.04313811968986523	0.001783880000000015	0.79429479	0.73975008	-0.3663193243615386	-0.01161753231488919	-0.204573554101375	-0.195611543035922	0.2153896736352492	0.1930231735039892	0	0.5176776438346139	0.1008789785062662	-0.07335315822067436	-0.1509826352571884	-0.05440920285041591	-0.05911718644523564	0	0.01488221431397588	-0.001460475461039737	0.1056841156793653	-0.03289890749404336	-0.09569522409147228	-0.340821805653962	0.8325749708860839	-0.3679050846177414	0.01980178906093679	-0.63721788236887	0.3783390985203446
0.58	-0.06546298316143952	0.05451612933718678	-0.02440341994534678	-0.0003144099999999872	0.7941551100000001	0.75488204	-0.3671860388110498	-0.02257549789866565	-0.2208191529554314	-0.216023198308593	0.1648114889133131	0.1801145162471118	0	0.5440066277985297	0.1220154904848402	-0.0587428738836079	-0.2274820295799276	-0.04266844959220421	-0.08658445529774622	0	0.02419932884730919	-0.01766762820233323	0.08300920801529627	-0.0282359673565591	-0.08931643610558668	-0.3444635974538686	0.8181625494648612	-0.363897349633569	0.01387613497462702	-0.6356475546629792	0.3690984257430573
0.59	-0.06260556622983018	0.06908152906014083	-0.01701339929583274	-0.001637999999999973	0.79515825	0.77003787	-0.3679020891091461	-0.04062652397404787	-0.2270501297050974	-0.2488178675838573	0.1320394347418315	0.170907611925659	0	0.5536448979240616	0.1391089455058401	-0.06077745341094259	-0.2830009262077967	-0.04122087787392325	-0.08832272870717352	0	0.0247623425679382	-0.03591812900512345	0.07755626867744045	-0.03116854269505563	-0.08495476684960006	-0.3458504674934298	0.809962857026909	-0.3562814560423078	0.007845391297929091	-0.6344374037480385	0.3676915306683233
0.6	-0.06319037614459776	0.08191994515650416	-0.01145580373409979	-0.003793109999999988	0.79626871	0.78580847	-0.3628183541032633	-0.06047018889426069	-0.236155077825768	-0.2811363215037869	0.05034559551356418	0.1587913002897995	0	0.5582987736940755	0.1562348434051078	-0.05912371938715878	-0.323569030172056	-0.02855323138812445	-0.07142528498221394	0	0.03138701306244354	-0.04929987241651967	0.07336798357093957	-0.03462147695445998	-0.08402689571403307	-0.3506424296996044	0.7967961284055147	-0.3489218174514109	0.003774416228172999	-0.6306924409981904	0.361774464300065
0.61	-0.05726128771100059	0.09106496247770023	-0.009558910278128177	-0.006100129999999981	0.79783366	0.80081545	-0.3536592271228864	-0.08132396521346033	-0.246994570634452	-0.3322176921539887	-0.00616278080167103	0.1556538002587728	0	0.5536870582720057	0.170955715468772	-0.05885506696405168	-0.3594741425116181	-0.004456956379163891	-0.07276893665523852	0	0.02792298077792454	-0.0572824195410521	0.07337000710567433	-0.0387269959298374	-0.08684558203565164	-0.3526561574292996	0.790276716449269	-0.3394291755042704	0.002172198215255673	-0.6282321524534152	0.3612612418559357
0.62	-0.05312657896778685	0.09641637317498326	-0.006912663323227815	-0.008045469999999999	0.79951961	0.8156274100000001	-0.3395310770762468	-0.09747088035908218	-0.2489223810410593	-0.3860776697339323	-0.0520995185922624	0.152772572332337	0	0.5417641326079257	0.1815949437885615	-0.05908680200828767	-0.380858316885583	0.01669189577535342	-0.07157462268339744	0	0.0260566960199768	-0.0617619112624519	0.07137456309615711	-0.04297437928107419	-0.08946568304964908	-0.3540674432288329	0.7835447347347707	-0.3295428764642047	0.0002825674096344804	-0.6253964767477919	0.3615499547443994
0.63	-0.05539566179364042	0.1037735566698067	-0.01177553729520128	-0.009247799999999973	0.8009749	0.8300044600000001	-0.308307531900611	-0.1205843798393994	-0.2460045012003317	-0.4529414115759516	-0.09622103193030483	0.1490482051657941	0	0.5295666493737473	0.1907088721518325	-0.06621248811413391	-0.3877163942752148	0.04231655194509399	-0.07226001033906294	0	0.03194626629666621	-0.06880841527079366	0.07880851588674175	-0.04772634552211003	-0.09251289824566775	-0.3536587815403283	0.7709350342273357	-0.3188263663614004	-0.003265184304845417	-0.6214111575508018	0.3624106560110387
0.64	-0.05830885665625829	0.1102362348838574	-0.01694999075837081	-0.01028217999999997	0.80243746	0.84369267	-0.267299182944236	-0.1438656098241565	-0.2400373030418367	-0.5345270611600135	-0.1322114275148376	0.120866697492418	0	0.5145016510905331	0.1989549236763103	-0.07119624245741499	-0.3870817461334316	0.06164635894679682	-0.07397914795857138	0	0.03677719594545125	-0.07457809957929527	0.08277392663655313	-0.05099259028900896	-0.09522765649351539	-0.3506611073405946	0.7613958794301624	-0.3073370190552922	-0.005786870565646015	-0.6198482234086883	0.3646712841253735
0.65	-0.06808661710423872	0.1169216040561898	-0.02735648199254524	-0.01084670999999998	0.80348105	0.85657598	-0.2097145095522515	-0.1681827283246889	-0.2255425359393074	-0.6229621058188101	-0.1725008010012899	0.09167093605560826	0	0.5025437869018879	0.2040847064019802	-0.07944125289299404	-0.3754939893101143	0.07587147267989303	-0.07139324492593753	0	0.04860410127353526	-0.07972067155412499	0.09034672961937894	-0.05375773514516412	-0.09962928750618738	-0.3447772111293034	0.7518959348508988	-0.2989071731904721	-0.006506269452445147	-0.6207426351862312	0.3716846970401633
0.66	-0.07817511133995544	0.1216750967268722	-0.03428714952290927	-0.01115146	0.80456074	0.86886785	-0.1487727531144542	-0.1866528123167981	-0.2102845042408227	-0.7094744650558149	-0.2163825244260655	0.05724649455639368	0	0.4923230442053637	0.2068077680537443	-0.09103518730919873	-0.3665819718048213	0.09128090924752728	-0.06647286401139513	0	0.05940003240941873	-0.08385884145101702	0.09286449988493685	-0.05452064159955697	-0.1022622350161441	-0.3373726664384832	0.7430523190679192	-0.2882885031039418	-0.006684772827159942	-0.6248441381589998	0.3827081513917319
0.67	-0.08677628914672526	0.1285099342760864	-0.03975897440071799	-0.01112954999999999	0.80590747	0.88072896	-0.0887491782678156	-0.2017480604720749	-0.1895326076769838	-0.7910728551943503	-0.2501151353866808	0.01099643333862211	0	0.4785477910068312	0.2123817002475994	-0.09723295079226502	-0.3532092246930544	0.10628634834455	-0.05646085571209238	0	0.06753597442751386	-0.09170315535719885	0.09184071871818256	-0.05534336729419974	-0.1007628270190789	-0.3323044500276444	0.7340064033930718	-0.2773771734159104	-0.01050101011127045	-0.6289535977387624	0.3955794605224788
0.68	-0.09641648323518306	0.1367860093839452	-0.04635529050670237	-0.01100608999999997	0.8072042	0.8920656	-0.02438717374777943	-0.2160899807144266	-0.1664813979504727	-0.872743629198421	-0.2568602582087163	-0.03511026060027119	0	0.4672665503030126	0.2178007308051488	-0.1107250871515145	-0.3403461538654428	0.1195163247309769	-0.04518660819352068	0	0.07635928854063399	-0.1006688143353215	0.09116223680676841	-0.05475431099220295	-0.1000977951384794	-0.3274652174985418	0.7248457178336728	-0.2657670924351967	-0.01315803216933042	-0.6334696794152656	0.4106582966486674
0.6900000000000001	-0.106861477106292	0.1439832672041913	-0.04977481956042598	-0.01111382	0.80861992	0.903137	0.04170213984879007	-0.2253407736088488	-0.1429714834079463	-0.952982624445013	-0.2391781835670984	-0.08326103389361782	0	0.4582776009532196	0.2231707307006864	-0.1195868747790668	-0.3300473717384753	0.1294503161145838	-0.03474472948824195	0	0.08525619323993404	-0.108471540012488	0.08588035265104449	-0.05365040280668715	-0.099641577940247	-0.3239569631086333	0.715329199782365	-0.2532003905573455	-0.01529610169279382	-0.6365442610248896	0.4267497272537695
